<svg width="17" height="19" viewBox="0 0 17 19" fill="none" xmlns="http://www.w3.org/2000/svg">
<path fill-rule="evenodd" clip-rule="evenodd" d="M6.39867 2.46111C6.53976 2.3126 6.73111 2.22917 6.93064 2.22917H10.0474C10.2469 2.22917 10.4382 2.3126 10.5793 2.46111C10.7204 2.60962 10.7997 2.81105 10.7997 3.02107V3.81292H6.17833V3.02107C6.17833 2.81105 6.25759 2.60962 6.39867 2.46111ZM4.56623 3.81292V3.02107C4.56623 2.36099 4.81534 1.72794 5.25875 1.26119C5.70216 0.794444 6.30356 0.532227 6.93064 0.532227H10.0474C10.6744 0.532227 11.2758 0.794444 11.7192 1.26119C12.1627 1.72794 12.4118 2.36099 12.4118 3.02107V3.81292H15.5031C15.9483 3.81292 16.3092 4.19279 16.3092 4.66139C16.3092 5.12998 15.9483 5.50986 15.5031 5.50986H14.7493V16.1441C14.7493 16.8042 14.5002 17.4372 14.0568 17.904C13.6134 18.3707 13.012 18.6329 12.3849 18.6329H4.5931C3.96602 18.6329 3.36462 18.3707 2.92121 17.904C2.4778 17.4372 2.22869 16.8042 2.22869 16.1441V5.50986H1.47792C1.03275 5.50986 0.671875 5.12998 0.671875 4.66139C0.671875 4.19279 1.03275 3.81292 1.47792 3.81292H4.56623ZM3.84079 16.1441V5.50992H13.1372V16.1441C13.1372 16.3541 13.0579 16.5555 12.9169 16.7041C12.7758 16.8526 12.5844 16.936 12.3849 16.936H4.5931C4.39358 16.936 4.20222 16.8526 4.06114 16.7041C3.92005 16.5555 3.84079 16.3541 3.84079 16.1441ZM6.93204 7.914C7.3772 7.914 7.73808 8.29387 7.73808 8.76247V13.6836C7.73808 14.1522 7.3772 14.5321 6.93204 14.5321C6.48687 14.5321 6.12599 14.1522 6.12599 13.6836V8.76247C6.12599 8.29387 6.48687 7.914 6.93204 7.914ZM10.8552 8.76247C10.8552 8.29387 10.4943 7.914 10.0492 7.914C9.60401 7.914 9.24313 8.29387 9.24313 8.76247V13.6836C9.24313 14.1522 9.60401 14.5321 10.0492 14.5321C10.4943 14.5321 10.8552 14.1522 10.8552 13.6836V8.76247Z" fill="#FF8D70"/>
</svg>
