<svg width="15" height="16" viewBox="0 0 15 16" fill="none" xmlns="http://www.w3.org/2000/svg">
<path d="M14.6216 1.54469V13.9447C14.6216 14.2736 14.4909 14.589 14.2584 14.8215C14.0258 15.054 13.7104 15.1847 13.3816 15.1847H10.2816C9.9527 15.1847 9.6373 15.054 9.40476 14.8215C9.17221 14.589 9.04157 14.2736 9.04157 13.9447V1.54469C9.04157 1.21582 9.17221 0.90042 9.40476 0.667875C9.6373 0.43533 9.9527 0.304688 10.2816 0.304688H13.3816C13.7104 0.304688 14.0258 0.43533 14.2584 0.667875C14.4909 0.90042 14.6216 1.21582 14.6216 1.54469ZM5.32157 0.304688H2.22157C1.8927 0.304688 1.5773 0.43533 1.34475 0.667875C1.11221 0.90042 0.981567 1.21582 0.981567 1.54469V13.9447C0.981567 14.2736 1.11221 14.589 1.34475 14.8215C1.5773 15.054 1.8927 15.1847 2.22157 15.1847H5.32157C5.65044 15.1847 5.96583 15.054 6.19838 14.8215C6.43092 14.589 6.56157 14.2736 6.56157 13.9447V1.54469C6.56157 1.21582 6.43092 0.90042 6.19838 0.667875C5.96583 0.43533 5.65044 0.304688 5.32157 0.304688Z" fill="url(#paint0_linear_668_125322)"/>
<defs>
<linearGradient id="paint0_linear_668_125322" x1="7.80157" y1="0.304687" x2="7.80157" y2="15.1847" gradientUnits="userSpaceOnUse">
<stop stop-color="#973998"/>
<stop offset="1" stop-color="#DB5689"/>
</linearGradient>
</defs>
</svg>
