<svg width="51" height="51" viewBox="0 0 51 51" fill="none" xmlns="http://www.w3.org/2000/svg">
<path d="M25.8037 50.8537C39.6107 50.8537 50.8038 39.6607 50.8038 25.8536C50.8038 12.0464 39.6107 0.853516 25.8037 0.853516C11.9965 0.853516 0.803589 12.0464 0.803589 25.8536C0.803589 39.6607 11.9965 50.8537 25.8037 50.8537Z" fill="url(#paint0_linear_668_125319)" fill-opacity="0.48"/>
<path d="M25.8034 44.0357C35.8448 44.0357 43.9852 35.8953 43.9852 25.8538C43.9852 15.8122 35.8448 7.67188 25.8034 7.67188C15.7618 7.67188 7.62146 15.8122 7.62146 25.8538C7.62146 35.8953 15.7618 44.0357 25.8034 44.0357Z" fill="white"/>
<path d="M32.6237 19.6541V32.0541C32.6237 32.3829 32.4931 32.6983 32.2605 32.9309C32.028 33.1634 31.7126 33.2941 31.3837 33.2941H28.2837C27.9548 33.2941 27.6394 33.1634 27.4069 32.9309C27.1743 32.6983 27.0437 32.3829 27.0437 32.0541V19.6541C27.0437 19.3252 27.1743 19.0098 27.4069 18.7773C27.6394 18.5447 27.9548 18.4141 28.2837 18.4141H31.3837C31.7126 18.4141 32.028 18.5447 32.2605 18.7773C32.4931 19.0098 32.6237 19.3252 32.6237 19.6541ZM23.3237 18.4141H20.2237C19.8948 18.4141 19.5794 18.5447 19.3469 18.7773C19.1143 19.0098 18.9837 19.3252 18.9837 19.6541V32.0541C18.9837 32.3829 19.1143 32.6983 19.3469 32.9309C19.5794 33.1634 19.8948 33.2941 20.2237 33.2941H23.3237C23.6526 33.2941 23.968 33.1634 24.2005 32.9309C24.4331 32.6983 24.5637 32.3829 24.5637 32.0541V19.6541C24.5637 19.3252 24.4331 19.0098 24.2005 18.7773C23.968 18.5447 23.6526 18.4141 23.3237 18.4141Z" fill="url(#paint1_linear_668_125319)"/>
<defs>
<linearGradient id="paint0_linear_668_125319" x1="25.8037" y1="0.853516" x2="25.8037" y2="50.8537" gradientUnits="userSpaceOnUse">
<stop stop-color="#973998"/>
<stop offset="1" stop-color="#DB5689"/>
</linearGradient>
<linearGradient id="paint1_linear_668_125319" x1="25.8037" y1="18.4141" x2="25.8037" y2="33.2941" gradientUnits="userSpaceOnUse">
<stop stop-color="#973998"/>
<stop offset="1" stop-color="#DB5689"/>
</linearGradient>
</defs>
</svg>
