<svg width="22" height="21" viewBox="0 0 22 21" fill="none" xmlns="http://www.w3.org/2000/svg">
<path fill-rule="evenodd" clip-rule="evenodd" d="M18.3411 17.9246C20.3103 15.9555 21.4165 13.2848 21.4165 10.5C21.4165 7.71523 20.3103 5.04451 18.3411 3.07538C16.372 1.10625 13.7013 0 10.9165 0C8.13173 0 5.46101 1.10625 3.49188 3.07538C1.52275 5.04451 0.416504 7.71523 0.416504 10.5C0.416504 13.2848 1.52275 15.9555 3.49188 17.9246C5.46101 19.8938 8.13173 21 10.9165 21C13.7013 21 16.372 19.8938 18.3411 17.9246ZM14.3265 13.6003V7.40027C14.3265 7.23584 14.2611 7.07814 14.1449 6.96187C14.0286 6.84559 13.8709 6.78027 13.7065 6.78027H12.1565C11.992 6.78027 11.8343 6.84559 11.7181 6.96187C11.6018 7.07814 11.5365 7.23584 11.5365 7.40027V13.6003C11.5365 13.7647 11.6018 13.9224 11.7181 14.0387C11.8343 14.155 11.992 14.2203 12.1565 14.2203H13.7065C13.8709 14.2203 14.0286 14.155 14.1449 14.0387C14.2611 13.9224 14.3265 13.7647 14.3265 13.6003ZM8.12647 6.78027H9.67647C9.8409 6.78027 9.9986 6.84559 10.1149 6.96187C10.2311 7.07814 10.2965 7.23584 10.2965 7.40027V13.6003C10.2965 13.7647 10.2311 13.9224 10.1149 14.0387C9.9986 14.155 9.8409 14.2203 9.67647 14.2203H8.12647C7.96204 14.2203 7.80434 14.155 7.68806 14.0387C7.57179 13.9224 7.50647 13.7647 7.50647 13.6003V7.40027C7.50647 7.23584 7.57179 7.07814 7.68806 6.96187C7.80434 6.84559 7.96204 6.78027 8.12647 6.78027Z" fill="white"/>
</svg>
